<svg xmlns="http://www.w3.org/2000/svg" viewBox="0 0 512 512" role="img" aria-label="Rei do Pitaco">
  <!-- maskable: fundo full-bleed e arte dentro da zona segura (~60%) -->
  <rect width="512" height="512" fill="#0A0F0A"/>
  <g transform="translate(64,47.5) scale(6)">
    <circle cx="32" cy="42" r="17" fill="#10B981"/>
    <g stroke="#FFFFFF" stroke-width="1.6" stroke-linecap="round" stroke-linejoin="round" fill="none">
      <polygon points="32,35 38.7,39.8 36.1,47.7 27.9,47.7 25.3,39.8"/>
      <line x1="32" y1="35" x2="32" y2="28.5"/>
      <line x1="38.7" y1="39.8" x2="45.5" y2="37"/>
      <line x1="36.1" y1="47.7" x2="40.5" y2="53.5"/>
      <line x1="27.9" y1="47.7" x2="23.5" y2="53.5"/>
      <line x1="25.3" y1="39.8" x2="18.5" y2="37"/>
    </g>
    <path d="M16 26 L16 15 L23 21 L32 11 L41 21 L48 15 L48 26 Z" fill="#F5B301" stroke="#F5B301" stroke-width="1.2" stroke-linejoin="round"/>
    <rect x="15" y="25" width="34" height="5.5" rx="2" fill="#F5B301"/>
    <circle cx="16" cy="14.5" r="2.2" fill="#10B981"/>
    <circle cx="32" cy="10.5" r="2.4" fill="#10B981"/>
    <circle cx="48" cy="14.5" r="2.2" fill="#10B981"/>
  </g>
</svg>
